<svg width="213" height="31" viewBox="0 0 213 31" fill="none" xmlns="http://www.w3.org/2000/svg">
<path d="M11.92 30.44C10.8 30.44 9.65333 30.3467 8.48 30.16C7.33333 30 6.22667 29.76 5.16 29.44C4.12 29.12 3.18667 28.72 2.36 28.24C1.77333 27.92 1.36 27.5067 1.12 27C0.88 26.4667 0.786667 25.9333 0.84 25.4C0.92 24.8667 1.12 24.4 1.44 24C1.78667 23.5733 2.21333 23.3067 2.72 23.2C3.25333 23.0667 3.84 23.16 4.48 23.48C5.57333 24.0933 6.76 24.5467 8.04 24.84C9.34667 25.1333 10.64 25.28 11.92 25.28C13.8667 25.28 15.2533 24.9867 16.08 24.4C16.9067 23.7867 17.32 23.0267 17.32 22.12C17.32 21.3467 17.0267 20.7333 16.44 20.28C15.8533 19.8267 14.8267 19.44 13.36 19.12L8.84 18.16C6.28 17.6267 4.37333 16.72 3.12 15.44C1.89333 14.1333 1.28 12.4267 1.28 10.32C1.28 8.98667 1.56 7.77333 2.12 6.68C2.68 5.58667 3.46667 4.64 4.48 3.84C5.49333 3.04 6.69333 2.42667 8.08 2C9.49333 1.57333 11.04 1.36 12.72 1.36C14.2133 1.36 15.68 1.54667 17.12 1.92C18.56 2.26667 19.8267 2.78667 20.92 3.48C21.4533 3.8 21.8133 4.21333 22 4.72C22.2133 5.2 22.28 5.69333 22.2 6.2C22.1467 6.68 21.9467 7.10667 21.6 7.48C21.28 7.85333 20.8667 8.09333 20.36 8.2C19.8533 8.30667 19.24 8.18667 18.52 7.84C17.64 7.38667 16.7067 7.05333 15.72 6.84C14.7333 6.62667 13.72 6.52 12.68 6.52C11.56 6.52 10.6 6.66667 9.8 6.96C9.02667 7.25333 8.42667 7.66667 8 8.2C7.6 8.73333 7.4 9.34667 7.4 10.04C7.4 10.8133 7.68 11.44 8.24 11.92C8.8 12.4 9.77333 12.7867 11.16 13.08L15.68 14.04C18.2933 14.6 20.24 15.5067 21.52 16.76C22.8 17.9867 23.44 19.6133 23.44 21.64C23.44 22.9733 23.1733 24.1867 22.64 25.28C22.1067 26.3467 21.3333 27.2667 20.32 28.04C19.3067 28.8133 18.0933 29.4133 16.68 29.84C15.2667 30.24 13.68 30.44 11.92 30.44ZM48.385 30.44C46.945 30.44 45.6517 30.16 44.505 29.6C43.3583 29.04 42.465 28.28 41.825 27.32C41.185 26.36 40.865 25.28 40.865 24.08C40.865 22.64 41.2383 21.5067 41.985 20.68C42.7317 19.8267 43.945 19.2267 45.625 18.88C47.305 18.5067 49.5317 18.32 52.305 18.32H54.425V21.44H52.345C50.985 21.44 49.8783 21.52 49.025 21.68C48.1983 21.8133 47.5983 22.0533 47.225 22.4C46.8783 22.7467 46.705 23.2267 46.705 23.84C46.705 24.5867 46.9583 25.2 47.465 25.68C47.9983 26.16 48.7583 26.4 49.745 26.4C50.5183 26.4 51.1983 26.2267 51.785 25.88C52.3983 25.5067 52.8783 25.0133 53.225 24.4C53.5717 23.76 53.745 23.04 53.745 22.24V17.64C53.745 16.4667 53.4783 15.64 52.945 15.16C52.4117 14.6533 51.505 14.4 50.225 14.4C49.505 14.4 48.7183 14.4933 47.865 14.68C47.0383 14.84 46.1183 15.12 45.105 15.52C44.5183 15.7867 43.9983 15.8533 43.545 15.72C43.0917 15.56 42.745 15.2933 42.505 14.92C42.265 14.52 42.145 14.0933 42.145 13.64C42.145 13.16 42.2783 12.7067 42.545 12.28C42.8117 11.8267 43.2517 11.4933 43.865 11.28C45.1183 10.7733 46.2917 10.4267 47.385 10.24C48.505 10.0533 49.5317 9.96 50.465 9.96C52.5183 9.96 54.1983 10.2667 55.505 10.88C56.8383 11.4667 57.8383 12.3867 58.505 13.64C59.1717 14.8667 59.505 16.4533 59.505 18.4V27.28C59.505 28.2667 59.265 29.0267 58.785 29.56C58.305 30.0933 57.6117 30.36 56.705 30.36C55.7983 30.36 55.0917 30.0933 54.585 29.56C54.105 29.0267 53.865 28.2667 53.865 27.28V25.8L54.145 26.04C53.985 26.9467 53.6383 27.7333 53.105 28.4C52.5983 29.04 51.945 29.5467 51.145 29.92C50.345 30.2667 49.425 30.44 48.385 30.44ZM82.2106 30.36C81.304 30.36 80.6106 30.1067 80.1306 29.6C79.6506 29.0933 79.4106 28.3867 79.4106 27.48V4.32C79.4106 3.41333 79.664 2.70666 80.1706 2.2C80.704 1.69333 81.424 1.44 82.3306 1.44C83.1306 1.44 83.7573 1.6 84.2106 1.92C84.6906 2.21333 85.1306 2.73333 85.5306 3.48L94.7706 20.36H93.4106L102.651 3.48C103.051 2.73333 103.477 2.21333 103.931 1.92C104.411 1.6 105.037 1.44 105.811 1.44C106.717 1.44 107.411 1.69333 107.891 2.2C108.397 2.70666 108.651 3.41333 108.651 4.32V27.48C108.651 28.3867 108.411 29.0933 107.931 29.6C107.451 30.1067 106.757 30.36 105.851 30.36C104.944 30.36 104.237 30.1067 103.731 29.6C103.251 29.0933 103.011 28.3867 103.011 27.48V11.28H103.891L96.4506 24.6C96.1306 25.1067 95.784 25.4933 95.4106 25.76C95.064 26 94.5973 26.12 94.0106 26.12C93.424 26.12 92.944 25.9867 92.5706 25.72C92.1973 25.4533 91.864 25.08 91.5706 24.6L84.0506 11.24H85.0106V27.48C85.0106 28.3867 84.7706 29.0933 84.2906 29.6C83.8373 30.1067 83.144 30.36 82.2106 30.36ZM131.69 30.32C130.703 30.32 129.943 30.04 129.41 29.48C128.903 28.8933 128.65 28.08 128.65 27.04V13.36C128.65 12.2933 128.903 11.48 129.41 10.92C129.943 10.3333 130.703 10.04 131.69 10.04C132.65 10.04 133.383 10.3333 133.89 10.92C134.423 11.48 134.69 12.2933 134.69 13.36V27.04C134.69 28.08 134.436 28.8933 133.93 29.48C133.423 30.04 132.676 30.32 131.69 30.32ZM131.69 6.76C130.57 6.76 129.703 6.50667 129.09 6C128.503 5.46667 128.21 4.72 128.21 3.76C128.21 2.77333 128.503 2.02667 129.09 1.52C129.703 0.986665 130.57 0.719998 131.69 0.719998C132.81 0.719998 133.663 0.986665 134.25 1.52C134.836 2.02667 135.13 2.77333 135.13 3.76C135.13 4.72 134.836 5.46667 134.25 6C133.663 6.50667 132.81 6.76 131.69 6.76ZM157.193 30.36C156.206 30.36 155.446 30.0933 154.913 29.56C154.406 29.0267 154.153 28.2667 154.153 27.28V13.08C154.153 12.0933 154.406 11.3467 154.913 10.84C155.446 10.3067 156.179 10.04 157.113 10.04C158.073 10.04 158.806 10.3067 159.313 10.84C159.819 11.3467 160.073 12.0933 160.073 13.08V15.36L159.633 14.04C160.246 12.7333 161.153 11.7333 162.353 11.04C163.579 10.32 164.966 9.96 166.513 9.96C168.086 9.96 169.379 10.2667 170.393 10.88C171.406 11.4667 172.166 12.3733 172.673 13.6C173.179 14.8 173.433 16.3333 173.433 18.2V27.28C173.433 28.2667 173.166 29.0267 172.633 29.56C172.126 30.0933 171.379 30.36 170.393 30.36C169.433 30.36 168.686 30.0933 168.153 29.56C167.646 29.0267 167.393 28.2667 167.393 27.28V18.48C167.393 17.12 167.139 16.1467 166.633 15.56C166.153 14.9467 165.406 14.64 164.393 14.64C163.113 14.64 162.086 15.04 161.313 15.84C160.566 16.64 160.193 17.7067 160.193 19.04V27.28C160.193 29.3333 159.193 30.36 157.193 30.36ZM200.382 30.44C198.675 30.44 197.169 30.0267 195.862 29.2C194.582 28.3733 193.582 27.1867 192.862 25.64C192.142 24.0933 191.782 22.2667 191.782 20.16C191.782 18.0533 192.142 16.24 192.862 14.72C193.582 13.2 194.582 12.0267 195.862 11.2C197.169 10.3733 198.675 9.96 200.382 9.96C201.929 9.96 203.289 10.3333 204.462 11.08C205.662 11.8267 206.475 12.8 206.902 14H206.462V4.52C206.462 3.50667 206.715 2.74667 207.222 2.24C207.729 1.70667 208.475 1.44 209.462 1.44C210.422 1.44 211.169 1.70667 211.702 2.24C212.235 2.74667 212.502 3.50667 212.502 4.52V27.28C212.502 28.2667 212.235 29.0267 211.702 29.56C211.195 30.0933 210.462 30.36 209.502 30.36C208.542 30.36 207.795 30.0933 207.262 29.56C206.755 29.0267 206.502 28.2667 206.502 27.28V24.56L206.942 26.12C206.569 27.4267 205.769 28.48 204.542 29.28C203.342 30.0533 201.955 30.44 200.382 30.44ZM202.182 25.92C203.062 25.92 203.822 25.7067 204.462 25.28C205.102 24.8533 205.609 24.2267 205.982 23.4C206.355 22.5467 206.542 21.4667 206.542 20.16C206.542 18.2133 206.142 16.7867 205.342 15.88C204.542 14.9467 203.489 14.48 202.182 14.48C201.329 14.48 200.569 14.68 199.902 15.08C199.262 15.48 198.755 16.1067 198.382 16.96C198.035 17.7867 197.862 18.8533 197.862 20.16C197.862 22.1067 198.262 23.56 199.062 24.52C199.862 25.4533 200.902 25.92 202.182 25.92Z" fill="white"/>
</svg>
